<mxfile host="app.diagrams.net" agent="Mozilla/5.0 (Windows NT 10.0; Win64; x64) AppleWebKit/537.36 (KHTML, like Gecko) Chrome/129.0.0.0 Safari/537.36" version="24.7.16">
  <diagram name="Página-1" id="tRKp0pS38RGJwvCDZbuE">
    <mxGraphModel dx="2206" dy="1120" grid="1" gridSize="10" guides="1" tooltips="1" connect="1" arrows="1" fold="1" page="1" pageScale="1" pageWidth="827" pageHeight="1169" math="0" shadow="0">
      <root>
        <mxCell id="0" />
        <mxCell id="1" parent="0" />
        <mxCell id="T9PaHXq-h9yFkGfPYQXf-1" value="Nome" style="ellipse;whiteSpace=wrap;html=1;align=center;" vertex="1" parent="1">
          <mxGeometry x="380" y="320" width="100" height="40" as="geometry" />
        </mxCell>
        <mxCell id="T9PaHXq-h9yFkGfPYQXf-2" value="BANCO" style="whiteSpace=wrap;html=1;align=center;" vertex="1" parent="1">
          <mxGeometry x="380" y="380" width="100" height="40" as="geometry" />
        </mxCell>
        <mxCell id="T9PaHXq-h9yFkGfPYQXf-3" value="SwiftCode" style="ellipse;whiteSpace=wrap;html=1;align=center;fontStyle=4;" vertex="1" parent="1">
          <mxGeometry x="380" y="470" width="100" height="40" as="geometry" />
        </mxCell>
        <mxCell id="T9PaHXq-h9yFkGfPYQXf-4" value="Morada" style="ellipse;whiteSpace=wrap;html=1;align=center;" vertex="1" parent="1">
          <mxGeometry x="520" y="380" width="100" height="40" as="geometry" />
        </mxCell>
        <mxCell id="T9PaHXq-h9yFkGfPYQXf-5" value="Rua" style="ellipse;whiteSpace=wrap;html=1;align=center;" vertex="1" parent="1">
          <mxGeometry x="660" y="410" width="100" height="40" as="geometry" />
        </mxCell>
        <mxCell id="T9PaHXq-h9yFkGfPYQXf-6" value="NumPorta" style="ellipse;whiteSpace=wrap;html=1;align=center;" vertex="1" parent="1">
          <mxGeometry x="650" y="340" width="100" height="40" as="geometry" />
        </mxCell>
        <mxCell id="T9PaHXq-h9yFkGfPYQXf-7" value="CodPostal" style="ellipse;whiteSpace=wrap;html=1;align=center;" vertex="1" parent="1">
          <mxGeometry x="520" y="480" width="100" height="40" as="geometry" />
        </mxCell>
        <mxCell id="T9PaHXq-h9yFkGfPYQXf-8" value="Localidade" style="ellipse;whiteSpace=wrap;html=1;align=center;" vertex="1" parent="1">
          <mxGeometry x="640" y="470" width="100" height="40" as="geometry" />
        </mxCell>
        <mxCell id="T9PaHXq-h9yFkGfPYQXf-9" value="País" style="ellipse;whiteSpace=wrap;html=1;align=center;" vertex="1" parent="1">
          <mxGeometry x="520" y="320" width="100" height="40" as="geometry" />
        </mxCell>
        <mxCell id="T9PaHXq-h9yFkGfPYQXf-10" value="CapitalSocial" style="ellipse;whiteSpace=wrap;html=1;align=center;" vertex="1" parent="1">
          <mxGeometry x="240" y="380" width="100" height="40" as="geometry" />
        </mxCell>
        <mxCell id="T9PaHXq-h9yFkGfPYQXf-12" value="" style="endArrow=none;html=1;rounded=0;exitX=1;exitY=0.5;exitDx=0;exitDy=0;entryX=0;entryY=0.5;entryDx=0;entryDy=0;" edge="1" parent="1" source="T9PaHXq-h9yFkGfPYQXf-10" target="T9PaHXq-h9yFkGfPYQXf-2">
          <mxGeometry relative="1" as="geometry">
            <mxPoint x="360" y="490" as="sourcePoint" />
            <mxPoint x="520" y="490" as="targetPoint" />
          </mxGeometry>
        </mxCell>
        <mxCell id="T9PaHXq-h9yFkGfPYQXf-13" value="" style="endArrow=none;html=1;rounded=0;exitX=0.5;exitY=1;exitDx=0;exitDy=0;entryX=0.5;entryY=0;entryDx=0;entryDy=0;" edge="1" parent="1" source="T9PaHXq-h9yFkGfPYQXf-1" target="T9PaHXq-h9yFkGfPYQXf-2">
          <mxGeometry relative="1" as="geometry">
            <mxPoint x="350" y="410" as="sourcePoint" />
            <mxPoint x="390" y="410" as="targetPoint" />
          </mxGeometry>
        </mxCell>
        <mxCell id="T9PaHXq-h9yFkGfPYQXf-14" value="" style="endArrow=none;html=1;rounded=0;exitX=1;exitY=0.5;exitDx=0;exitDy=0;entryX=0;entryY=0.5;entryDx=0;entryDy=0;" edge="1" parent="1" source="T9PaHXq-h9yFkGfPYQXf-2" target="T9PaHXq-h9yFkGfPYQXf-4">
          <mxGeometry relative="1" as="geometry">
            <mxPoint x="360" y="420" as="sourcePoint" />
            <mxPoint x="400" y="420" as="targetPoint" />
          </mxGeometry>
        </mxCell>
        <mxCell id="T9PaHXq-h9yFkGfPYQXf-15" value="" style="endArrow=none;html=1;rounded=0;exitX=0.5;exitY=0;exitDx=0;exitDy=0;entryX=0.5;entryY=1;entryDx=0;entryDy=0;" edge="1" parent="1" source="T9PaHXq-h9yFkGfPYQXf-4" target="T9PaHXq-h9yFkGfPYQXf-9">
          <mxGeometry relative="1" as="geometry">
            <mxPoint x="370" y="430" as="sourcePoint" />
            <mxPoint x="410" y="430" as="targetPoint" />
          </mxGeometry>
        </mxCell>
        <mxCell id="T9PaHXq-h9yFkGfPYQXf-16" value="" style="endArrow=none;html=1;rounded=0;exitX=1;exitY=0.5;exitDx=0;exitDy=0;entryX=0;entryY=0.5;entryDx=0;entryDy=0;" edge="1" parent="1" source="T9PaHXq-h9yFkGfPYQXf-4" target="T9PaHXq-h9yFkGfPYQXf-6">
          <mxGeometry relative="1" as="geometry">
            <mxPoint x="380" y="440" as="sourcePoint" />
            <mxPoint x="420" y="440" as="targetPoint" />
          </mxGeometry>
        </mxCell>
        <mxCell id="T9PaHXq-h9yFkGfPYQXf-17" value="" style="endArrow=none;html=1;rounded=0;exitX=1;exitY=0.5;exitDx=0;exitDy=0;entryX=0;entryY=0.5;entryDx=0;entryDy=0;" edge="1" parent="1" source="T9PaHXq-h9yFkGfPYQXf-4" target="T9PaHXq-h9yFkGfPYQXf-5">
          <mxGeometry relative="1" as="geometry">
            <mxPoint x="390" y="450" as="sourcePoint" />
            <mxPoint x="430" y="450" as="targetPoint" />
          </mxGeometry>
        </mxCell>
        <mxCell id="T9PaHXq-h9yFkGfPYQXf-18" value="" style="endArrow=none;html=1;rounded=0;entryX=0.5;entryY=0;entryDx=0;entryDy=0;exitX=0.5;exitY=1;exitDx=0;exitDy=0;" edge="1" parent="1" source="T9PaHXq-h9yFkGfPYQXf-2" target="T9PaHXq-h9yFkGfPYQXf-3">
          <mxGeometry relative="1" as="geometry">
            <mxPoint x="460" y="430" as="sourcePoint" />
            <mxPoint x="440" y="460" as="targetPoint" />
          </mxGeometry>
        </mxCell>
        <mxCell id="T9PaHXq-h9yFkGfPYQXf-19" value="" style="endArrow=none;html=1;rounded=0;exitX=0.5;exitY=0;exitDx=0;exitDy=0;entryX=0.5;entryY=1;entryDx=0;entryDy=0;" edge="1" parent="1" source="T9PaHXq-h9yFkGfPYQXf-7" target="T9PaHXq-h9yFkGfPYQXf-4">
          <mxGeometry relative="1" as="geometry">
            <mxPoint x="410" y="470" as="sourcePoint" />
            <mxPoint x="450" y="470" as="targetPoint" />
          </mxGeometry>
        </mxCell>
        <mxCell id="T9PaHXq-h9yFkGfPYQXf-20" value="" style="endArrow=none;html=1;rounded=0;exitX=0.5;exitY=1;exitDx=0;exitDy=0;entryX=0;entryY=0;entryDx=0;entryDy=0;" edge="1" parent="1" source="T9PaHXq-h9yFkGfPYQXf-4" target="T9PaHXq-h9yFkGfPYQXf-8">
          <mxGeometry relative="1" as="geometry">
            <mxPoint x="420" y="480" as="sourcePoint" />
            <mxPoint x="460" y="480" as="targetPoint" />
          </mxGeometry>
        </mxCell>
        <mxCell id="T9PaHXq-h9yFkGfPYQXf-21" value="NomeConta" style="ellipse;whiteSpace=wrap;html=1;align=center;" vertex="1" parent="1">
          <mxGeometry x="420" y="540" width="100" height="40" as="geometry" />
        </mxCell>
        <mxCell id="T9PaHXq-h9yFkGfPYQXf-22" value="CONTA" style="whiteSpace=wrap;html=1;align=center;" vertex="1" parent="1">
          <mxGeometry x="420" y="600" width="100" height="40" as="geometry" />
        </mxCell>
        <mxCell id="T9PaHXq-h9yFkGfPYQXf-23" value="NumConta" style="ellipse;whiteSpace=wrap;html=1;align=center;fontStyle=4;" vertex="1" parent="1">
          <mxGeometry x="420" y="690" width="100" height="40" as="geometry" />
        </mxCell>
        <mxCell id="T9PaHXq-h9yFkGfPYQXf-24" value="Saldo" style="ellipse;whiteSpace=wrap;html=1;align=center;" vertex="1" parent="1">
          <mxGeometry x="560" y="600" width="100" height="40" as="geometry" />
        </mxCell>
        <mxCell id="T9PaHXq-h9yFkGfPYQXf-30" value="DataCriação" style="ellipse;whiteSpace=wrap;html=1;align=center;" vertex="1" parent="1">
          <mxGeometry x="280" y="600" width="100" height="40" as="geometry" />
        </mxCell>
        <mxCell id="T9PaHXq-h9yFkGfPYQXf-31" value="" style="endArrow=none;html=1;rounded=0;exitX=1;exitY=0.5;exitDx=0;exitDy=0;entryX=0;entryY=0.5;entryDx=0;entryDy=0;" edge="1" parent="1" source="T9PaHXq-h9yFkGfPYQXf-30" target="T9PaHXq-h9yFkGfPYQXf-22">
          <mxGeometry relative="1" as="geometry">
            <mxPoint x="400" y="710" as="sourcePoint" />
            <mxPoint x="560" y="710" as="targetPoint" />
          </mxGeometry>
        </mxCell>
        <mxCell id="T9PaHXq-h9yFkGfPYQXf-32" value="" style="endArrow=none;html=1;rounded=0;exitX=0.5;exitY=1;exitDx=0;exitDy=0;entryX=0.5;entryY=0;entryDx=0;entryDy=0;" edge="1" parent="1" source="T9PaHXq-h9yFkGfPYQXf-21" target="T9PaHXq-h9yFkGfPYQXf-22">
          <mxGeometry relative="1" as="geometry">
            <mxPoint x="390" y="630" as="sourcePoint" />
            <mxPoint x="430" y="630" as="targetPoint" />
          </mxGeometry>
        </mxCell>
        <mxCell id="T9PaHXq-h9yFkGfPYQXf-33" value="" style="endArrow=none;html=1;rounded=0;exitX=1;exitY=0.5;exitDx=0;exitDy=0;entryX=0;entryY=0.5;entryDx=0;entryDy=0;" edge="1" parent="1" source="T9PaHXq-h9yFkGfPYQXf-22" target="T9PaHXq-h9yFkGfPYQXf-24">
          <mxGeometry relative="1" as="geometry">
            <mxPoint x="400" y="640" as="sourcePoint" />
            <mxPoint x="440" y="640" as="targetPoint" />
          </mxGeometry>
        </mxCell>
        <mxCell id="T9PaHXq-h9yFkGfPYQXf-37" value="" style="endArrow=none;html=1;rounded=0;entryX=0.5;entryY=0;entryDx=0;entryDy=0;exitX=0.5;exitY=1;exitDx=0;exitDy=0;" edge="1" parent="1" source="T9PaHXq-h9yFkGfPYQXf-22" target="T9PaHXq-h9yFkGfPYQXf-23">
          <mxGeometry relative="1" as="geometry">
            <mxPoint x="500" y="650" as="sourcePoint" />
            <mxPoint x="480" y="680" as="targetPoint" />
          </mxGeometry>
        </mxCell>
        <mxCell id="T9PaHXq-h9yFkGfPYQXf-40" value="TipoMovimento" style="ellipse;whiteSpace=wrap;html=1;align=center;" vertex="1" parent="1">
          <mxGeometry x="840" y="540" width="100" height="40" as="geometry" />
        </mxCell>
        <mxCell id="T9PaHXq-h9yFkGfPYQXf-41" value="MOVIMENTOS" style="whiteSpace=wrap;html=1;align=center;" vertex="1" parent="1">
          <mxGeometry x="840" y="600" width="100" height="40" as="geometry" />
        </mxCell>
        <mxCell id="T9PaHXq-h9yFkGfPYQXf-42" value="NumMovimento" style="ellipse;whiteSpace=wrap;html=1;align=center;fontStyle=4;" vertex="1" parent="1">
          <mxGeometry x="840" y="690" width="100" height="40" as="geometry" />
        </mxCell>
        <mxCell id="T9PaHXq-h9yFkGfPYQXf-43" value="Valor" style="ellipse;whiteSpace=wrap;html=1;align=center;" vertex="1" parent="1">
          <mxGeometry x="980" y="600" width="100" height="40" as="geometry" />
        </mxCell>
        <mxCell id="T9PaHXq-h9yFkGfPYQXf-44" value="Data" style="ellipse;whiteSpace=wrap;html=1;align=center;" vertex="1" parent="1">
          <mxGeometry x="700" y="600" width="100" height="40" as="geometry" />
        </mxCell>
        <mxCell id="T9PaHXq-h9yFkGfPYQXf-45" value="" style="endArrow=none;html=1;rounded=0;exitX=1;exitY=0.5;exitDx=0;exitDy=0;entryX=0;entryY=0.5;entryDx=0;entryDy=0;" edge="1" parent="1" source="T9PaHXq-h9yFkGfPYQXf-44" target="T9PaHXq-h9yFkGfPYQXf-41">
          <mxGeometry relative="1" as="geometry">
            <mxPoint x="820" y="710" as="sourcePoint" />
            <mxPoint x="980" y="710" as="targetPoint" />
          </mxGeometry>
        </mxCell>
        <mxCell id="T9PaHXq-h9yFkGfPYQXf-46" value="" style="endArrow=none;html=1;rounded=0;exitX=0.5;exitY=1;exitDx=0;exitDy=0;entryX=0.5;entryY=0;entryDx=0;entryDy=0;" edge="1" parent="1" source="T9PaHXq-h9yFkGfPYQXf-40" target="T9PaHXq-h9yFkGfPYQXf-41">
          <mxGeometry relative="1" as="geometry">
            <mxPoint x="810" y="630" as="sourcePoint" />
            <mxPoint x="850" y="630" as="targetPoint" />
          </mxGeometry>
        </mxCell>
        <mxCell id="T9PaHXq-h9yFkGfPYQXf-47" value="" style="endArrow=none;html=1;rounded=0;exitX=1;exitY=0.5;exitDx=0;exitDy=0;entryX=0;entryY=0.5;entryDx=0;entryDy=0;" edge="1" parent="1" source="T9PaHXq-h9yFkGfPYQXf-41" target="T9PaHXq-h9yFkGfPYQXf-43">
          <mxGeometry relative="1" as="geometry">
            <mxPoint x="820" y="640" as="sourcePoint" />
            <mxPoint x="860" y="640" as="targetPoint" />
          </mxGeometry>
        </mxCell>
        <mxCell id="T9PaHXq-h9yFkGfPYQXf-48" value="" style="endArrow=none;html=1;rounded=0;entryX=0.5;entryY=0;entryDx=0;entryDy=0;exitX=0.5;exitY=1;exitDx=0;exitDy=0;" edge="1" parent="1" source="T9PaHXq-h9yFkGfPYQXf-41" target="T9PaHXq-h9yFkGfPYQXf-42">
          <mxGeometry relative="1" as="geometry">
            <mxPoint x="920" y="650" as="sourcePoint" />
            <mxPoint x="900" y="680" as="targetPoint" />
          </mxGeometry>
        </mxCell>
        <mxCell id="T9PaHXq-h9yFkGfPYQXf-49" value="Nome" style="ellipse;whiteSpace=wrap;html=1;align=center;" vertex="1" parent="1">
          <mxGeometry x="960" y="280" width="100" height="40" as="geometry" />
        </mxCell>
        <mxCell id="T9PaHXq-h9yFkGfPYQXf-50" value="CLIENTE" style="whiteSpace=wrap;html=1;align=center;" vertex="1" parent="1">
          <mxGeometry x="960" y="340" width="100" height="40" as="geometry" />
        </mxCell>
        <mxCell id="T9PaHXq-h9yFkGfPYQXf-51" value="NumCliente" style="ellipse;whiteSpace=wrap;html=1;align=center;fontStyle=4;" vertex="1" parent="1">
          <mxGeometry x="900" y="440" width="100" height="40" as="geometry" />
        </mxCell>
        <mxCell id="T9PaHXq-h9yFkGfPYQXf-52" value="Género" style="ellipse;whiteSpace=wrap;html=1;align=center;" vertex="1" parent="1">
          <mxGeometry x="1100" y="340" width="100" height="40" as="geometry" />
        </mxCell>
        <mxCell id="T9PaHXq-h9yFkGfPYQXf-53" value="DataNascimento" style="ellipse;whiteSpace=wrap;html=1;align=center;" vertex="1" parent="1">
          <mxGeometry x="820" y="340" width="100" height="40" as="geometry" />
        </mxCell>
        <mxCell id="T9PaHXq-h9yFkGfPYQXf-54" value="" style="endArrow=none;html=1;rounded=0;exitX=1;exitY=0.5;exitDx=0;exitDy=0;entryX=0;entryY=0.5;entryDx=0;entryDy=0;" edge="1" parent="1" source="T9PaHXq-h9yFkGfPYQXf-53" target="T9PaHXq-h9yFkGfPYQXf-50">
          <mxGeometry relative="1" as="geometry">
            <mxPoint x="940" y="450" as="sourcePoint" />
            <mxPoint x="1100" y="450" as="targetPoint" />
          </mxGeometry>
        </mxCell>
        <mxCell id="T9PaHXq-h9yFkGfPYQXf-55" value="" style="endArrow=none;html=1;rounded=0;exitX=0.5;exitY=1;exitDx=0;exitDy=0;entryX=0.5;entryY=0;entryDx=0;entryDy=0;" edge="1" parent="1" source="T9PaHXq-h9yFkGfPYQXf-49" target="T9PaHXq-h9yFkGfPYQXf-50">
          <mxGeometry relative="1" as="geometry">
            <mxPoint x="930" y="370" as="sourcePoint" />
            <mxPoint x="970" y="370" as="targetPoint" />
          </mxGeometry>
        </mxCell>
        <mxCell id="T9PaHXq-h9yFkGfPYQXf-56" value="" style="endArrow=none;html=1;rounded=0;exitX=1;exitY=0.5;exitDx=0;exitDy=0;entryX=0;entryY=0.5;entryDx=0;entryDy=0;" edge="1" parent="1" source="T9PaHXq-h9yFkGfPYQXf-50" target="T9PaHXq-h9yFkGfPYQXf-52">
          <mxGeometry relative="1" as="geometry">
            <mxPoint x="940" y="380" as="sourcePoint" />
            <mxPoint x="980" y="380" as="targetPoint" />
          </mxGeometry>
        </mxCell>
        <mxCell id="T9PaHXq-h9yFkGfPYQXf-57" value="" style="endArrow=none;html=1;rounded=0;entryX=0.5;entryY=0;entryDx=0;entryDy=0;exitX=0.5;exitY=1;exitDx=0;exitDy=0;" edge="1" parent="1" source="T9PaHXq-h9yFkGfPYQXf-50" target="T9PaHXq-h9yFkGfPYQXf-51">
          <mxGeometry relative="1" as="geometry">
            <mxPoint x="1040" y="390" as="sourcePoint" />
            <mxPoint x="1020" y="420" as="targetPoint" />
          </mxGeometry>
        </mxCell>
        <mxCell id="T9PaHXq-h9yFkGfPYQXf-58" value="VencimentoAnual" style="ellipse;whiteSpace=wrap;html=1;align=center;" vertex="1" parent="1">
          <mxGeometry x="1040" y="440" width="100" height="40" as="geometry" />
        </mxCell>
        <mxCell id="T9PaHXq-h9yFkGfPYQXf-59" value="" style="endArrow=none;html=1;rounded=0;entryX=0.5;entryY=1;entryDx=0;entryDy=0;exitX=0.5;exitY=0;exitDx=0;exitDy=0;" edge="1" parent="1" source="T9PaHXq-h9yFkGfPYQXf-58" target="T9PaHXq-h9yFkGfPYQXf-50">
          <mxGeometry relative="1" as="geometry">
            <mxPoint x="670" y="640" as="sourcePoint" />
            <mxPoint x="830" y="640" as="targetPoint" />
          </mxGeometry>
        </mxCell>
        <mxCell id="T9PaHXq-h9yFkGfPYQXf-60" value="PERTENCE_A" style="shape=rhombus;perimeter=rhombusPerimeter;whiteSpace=wrap;html=1;align=center;" vertex="1" parent="1">
          <mxGeometry x="640" y="800" width="120" height="60" as="geometry" />
        </mxCell>
        <mxCell id="T9PaHXq-h9yFkGfPYQXf-61" value="BANCO" style="whiteSpace=wrap;html=1;align=center;" vertex="1" parent="1">
          <mxGeometry x="820" y="810" width="100" height="40" as="geometry" />
        </mxCell>
        <mxCell id="T9PaHXq-h9yFkGfPYQXf-62" value="CLIENTE" style="whiteSpace=wrap;html=1;align=center;" vertex="1" parent="1">
          <mxGeometry x="480" y="810" width="100" height="40" as="geometry" />
        </mxCell>
        <mxCell id="T9PaHXq-h9yFkGfPYQXf-65" value="" style="shape=link;html=1;rounded=0;entryX=1;entryY=0.5;entryDx=0;entryDy=0;exitX=0;exitY=0.5;exitDx=0;exitDy=0;" edge="1" parent="1" source="T9PaHXq-h9yFkGfPYQXf-60" target="T9PaHXq-h9yFkGfPYQXf-62">
          <mxGeometry relative="1" as="geometry">
            <mxPoint x="700" y="930" as="sourcePoint" />
            <mxPoint x="860" y="930" as="targetPoint" />
          </mxGeometry>
        </mxCell>
        <mxCell id="T9PaHXq-h9yFkGfPYQXf-66" value="M" style="resizable=0;html=1;whiteSpace=wrap;align=right;verticalAlign=bottom;" connectable="0" vertex="1" parent="T9PaHXq-h9yFkGfPYQXf-65">
          <mxGeometry x="1" relative="1" as="geometry" />
        </mxCell>
        <mxCell id="T9PaHXq-h9yFkGfPYQXf-69" value="" style="endArrow=none;html=1;rounded=0;exitX=1;exitY=0.5;exitDx=0;exitDy=0;entryX=0;entryY=0.5;entryDx=0;entryDy=0;" edge="1" parent="1" source="T9PaHXq-h9yFkGfPYQXf-60" target="T9PaHXq-h9yFkGfPYQXf-61">
          <mxGeometry relative="1" as="geometry">
            <mxPoint x="700" y="930" as="sourcePoint" />
            <mxPoint x="860" y="930" as="targetPoint" />
          </mxGeometry>
        </mxCell>
        <mxCell id="T9PaHXq-h9yFkGfPYQXf-70" value="N" style="resizable=0;html=1;whiteSpace=wrap;align=right;verticalAlign=bottom;" connectable="0" vertex="1" parent="T9PaHXq-h9yFkGfPYQXf-69">
          <mxGeometry x="1" relative="1" as="geometry" />
        </mxCell>
        <mxCell id="T9PaHXq-h9yFkGfPYQXf-71" value="&lt;span id=&quot;docs-internal-guid-71734ad7-7fff-62f7-4db1-e962360f2191&quot;&gt;&lt;span style=&quot;font-size: 12pt; font-family: Calibri, sans-serif; background-color: transparent; font-variant-numeric: normal; font-variant-east-asian: normal; font-variant-alternates: normal; font-variant-position: normal; vertical-align: baseline; white-space-collapse: preserve;&quot;&gt;CONTA_DE&lt;/span&gt;&lt;/span&gt;" style="shape=rhombus;perimeter=rhombusPerimeter;whiteSpace=wrap;html=1;align=center;" vertex="1" parent="1">
          <mxGeometry x="470" y="920" width="120" height="60" as="geometry" />
        </mxCell>
        <mxCell id="T9PaHXq-h9yFkGfPYQXf-72" value="CONTA" style="whiteSpace=wrap;html=1;align=center;" vertex="1" parent="1">
          <mxGeometry x="480" y="1080" width="100" height="40" as="geometry" />
        </mxCell>
        <mxCell id="T9PaHXq-h9yFkGfPYQXf-73" value="MOVIMENTOS" style="whiteSpace=wrap;html=1;align=center;" vertex="1" parent="1">
          <mxGeometry x="880" y="1080" width="100" height="40" as="geometry" />
        </mxCell>
        <mxCell id="T9PaHXq-h9yFkGfPYQXf-74" value="&lt;span id=&quot;docs-internal-guid-fb2df284-7fff-6dd5-38d9-8c89a542093a&quot;&gt;&lt;span style=&quot;font-size: 12pt; font-family: Calibri, sans-serif; background-color: transparent; font-variant-numeric: normal; font-variant-east-asian: normal; font-variant-alternates: normal; font-variant-position: normal; vertical-align: baseline; white-space-collapse: preserve;&quot;&gt;MOVIMENTOS_DE&lt;/span&gt;&lt;/span&gt;" style="shape=rhombus;perimeter=rhombusPerimeter;whiteSpace=wrap;html=1;align=center;" vertex="1" parent="1">
          <mxGeometry x="650" y="1055" width="140" height="90" as="geometry" />
        </mxCell>
        <mxCell id="T9PaHXq-h9yFkGfPYQXf-76" value="" style="shape=link;html=1;rounded=0;entryX=0.5;entryY=0;entryDx=0;entryDy=0;exitX=0.5;exitY=1;exitDx=0;exitDy=0;" edge="1" parent="1" source="T9PaHXq-h9yFkGfPYQXf-71" target="T9PaHXq-h9yFkGfPYQXf-72">
          <mxGeometry relative="1" as="geometry">
            <mxPoint x="700" y="930" as="sourcePoint" />
            <mxPoint x="860" y="930" as="targetPoint" />
          </mxGeometry>
        </mxCell>
        <mxCell id="T9PaHXq-h9yFkGfPYQXf-77" value="N" style="resizable=0;html=1;whiteSpace=wrap;align=right;verticalAlign=bottom;" connectable="0" vertex="1" parent="T9PaHXq-h9yFkGfPYQXf-76">
          <mxGeometry x="1" relative="1" as="geometry" />
        </mxCell>
        <mxCell id="T9PaHXq-h9yFkGfPYQXf-81" value="" style="shape=link;html=1;rounded=0;exitX=0.5;exitY=1;exitDx=0;exitDy=0;entryX=0.5;entryY=0;entryDx=0;entryDy=0;" edge="1" parent="1" source="T9PaHXq-h9yFkGfPYQXf-62" target="T9PaHXq-h9yFkGfPYQXf-71">
          <mxGeometry relative="1" as="geometry">
            <mxPoint x="700" y="930" as="sourcePoint" />
            <mxPoint x="860" y="930" as="targetPoint" />
          </mxGeometry>
        </mxCell>
        <mxCell id="T9PaHXq-h9yFkGfPYQXf-82" value="M" style="resizable=0;html=1;whiteSpace=wrap;align=left;verticalAlign=bottom;" connectable="0" vertex="1" parent="T9PaHXq-h9yFkGfPYQXf-81">
          <mxGeometry x="-1" relative="1" as="geometry">
            <mxPoint x="-20" y="20" as="offset" />
          </mxGeometry>
        </mxCell>
        <mxCell id="T9PaHXq-h9yFkGfPYQXf-84" value="" style="shape=link;html=1;rounded=0;exitX=1;exitY=0.5;exitDx=0;exitDy=0;entryX=0;entryY=0.5;entryDx=0;entryDy=0;" edge="1" parent="1" source="T9PaHXq-h9yFkGfPYQXf-74" target="T9PaHXq-h9yFkGfPYQXf-73">
          <mxGeometry relative="1" as="geometry">
            <mxPoint x="700" y="1030" as="sourcePoint" />
            <mxPoint x="860" y="1030" as="targetPoint" />
          </mxGeometry>
        </mxCell>
        <mxCell id="T9PaHXq-h9yFkGfPYQXf-85" value="N" style="resizable=0;html=1;whiteSpace=wrap;align=right;verticalAlign=bottom;" connectable="0" vertex="1" parent="T9PaHXq-h9yFkGfPYQXf-84">
          <mxGeometry x="1" relative="1" as="geometry" />
        </mxCell>
        <mxCell id="T9PaHXq-h9yFkGfPYQXf-86" value="" style="endArrow=none;html=1;rounded=0;entryX=1;entryY=0.5;entryDx=0;entryDy=0;exitX=0;exitY=0.5;exitDx=0;exitDy=0;" edge="1" parent="1" source="T9PaHXq-h9yFkGfPYQXf-74" target="T9PaHXq-h9yFkGfPYQXf-72">
          <mxGeometry relative="1" as="geometry">
            <mxPoint x="700" y="1030" as="sourcePoint" />
            <mxPoint x="860" y="1030" as="targetPoint" />
          </mxGeometry>
        </mxCell>
        <mxCell id="T9PaHXq-h9yFkGfPYQXf-87" value="1" style="resizable=0;html=1;whiteSpace=wrap;align=right;verticalAlign=bottom;" connectable="0" vertex="1" parent="T9PaHXq-h9yFkGfPYQXf-86">
          <mxGeometry x="1" relative="1" as="geometry" />
        </mxCell>
      </root>
    </mxGraphModel>
  </diagram>
</mxfile>
